<svg id="Layer_1" xmlns="http://www.w3.org/2000/svg" viewBox="-177 340 256 114"><style>.st0{fill:#2D3D64;} .st1{fill:#FFFFFF;}</style><path class="st0" d="M-61.2 403.8h12.4l3.6 22.3 4-22.3h8.6l4.3 22.3 3.9-22.3h11.6l-9.4 33.7H-33l-3.5-17.6-4.1 17.6h-10.5l-10.1-33.7zm77.7.1h13.2l5.3 20.4 6-20.7h12.6L41 437.5H29.1l-12.6-33.6zm40.1 0v33.6H79v-8.6H68.2v-4H78v-8.7h-9.7v-3.8h10.6v-8.5H56.6zM-.2 425.3l3.3-11.8 2.5 11.8H-.2zm10.1-21.5H-3.8L-16 437.5h13l1.2-4.7h9.5l1 4.7H22L9.9 403.8zm-90 23.2l-6.4 10.5h-28l15.5-24.1h-14.3l6-9.6H-80L-94.7 427h14.6zm-16-38c-17.9 0-32.3 14.5-32.3 32.3s14.5 32.3 32.3 32.3c17.9 0 32.3-14.5 32.3-32.3S-78.3 389-96.1 389zm-.8-38.4V340c-44.3.2-80.1 36.2-80.1 80.5v.6h10.6c.2-38.6 31.1-69.8 69.5-70.5zm0 22.2v-10.6h-.2c-32.4 0-58.7 26.3-58.7 58.7v.2h10.6c.5-26.5 21.9-47.8 48.3-48.3z"/><path class="st1" d="M-107.4 403.8h27.3L-94.7 427h14.6l-6.5 10.4h-28l15.6-24h-14.4z"/></svg>